<mxfile host="app.diagrams.net" agent="Mozilla/5.0 (Windows NT 10.0; Win64; x64) AppleWebKit/537.36 (KHTML, like Gecko) Chrome/131.0.0.0 Safari/537.36" version="24.9.0">
  <diagram id="7gcUSTIZ7YSJ5vT40chW" name="Page-1">
    <mxGraphModel dx="1276" dy="557" grid="1" gridSize="10" guides="1" tooltips="1" connect="1" arrows="1" fold="1" page="1" pageScale="1" pageWidth="1169" pageHeight="827" math="0" shadow="0">
      <root>
        <mxCell id="0" />
        <mxCell id="1" parent="0" />
        <mxCell id="1rODz5x4y69jwjxa95c7-1" value="Root Management Group" style="image;aspect=fixed;html=1;points=[];align=center;fontSize=12;image=img/lib/azure2/general/Management_Groups.svg;" vertex="1" parent="1">
          <mxGeometry x="80" y="280" width="66" height="64" as="geometry" />
        </mxCell>
        <mxCell id="1rODz5x4y69jwjxa95c7-3" value="Business Unit-Based Hierarchy" style="text;html=1;align=center;verticalAlign=middle;resizable=0;points=[];autosize=1;strokeColor=none;fillColor=none;" vertex="1" parent="1">
          <mxGeometry x="160" y="210" width="190" height="30" as="geometry" />
        </mxCell>
        <mxCell id="1rODz5x4y69jwjxa95c7-4" value="" style="image;aspect=fixed;html=1;points=[];align=center;fontSize=12;image=img/lib/azure2/general/Management_Groups.svg;" vertex="1" parent="1">
          <mxGeometry x="20" y="419.4" width="46" height="44.6" as="geometry" />
        </mxCell>
        <mxCell id="1rODz5x4y69jwjxa95c7-5" value="" style="image;aspect=fixed;html=1;points=[];align=center;fontSize=12;image=img/lib/azure2/general/Management_Groups.svg;" vertex="1" parent="1">
          <mxGeometry x="100" y="419.4" width="46" height="44.6" as="geometry" />
        </mxCell>
        <mxCell id="1rODz5x4y69jwjxa95c7-6" value="" style="image;aspect=fixed;html=1;points=[];align=center;fontSize=12;image=img/lib/azure2/general/Management_Groups.svg;" vertex="1" parent="1">
          <mxGeometry x="180" y="419.4" width="46" height="44.6" as="geometry" />
        </mxCell>
        <mxCell id="1rODz5x4y69jwjxa95c7-11" value="Root Management Group" style="image;aspect=fixed;html=1;points=[];align=center;fontSize=12;image=img/lib/azure2/general/Management_Groups.svg;" vertex="1" parent="1">
          <mxGeometry x="370" y="290" width="66" height="64" as="geometry" />
        </mxCell>
        <mxCell id="1rODz5x4y69jwjxa95c7-12" value="" style="image;aspect=fixed;html=1;points=[];align=center;fontSize=12;image=img/lib/azure2/general/Management_Groups.svg;" vertex="1" parent="1">
          <mxGeometry x="300" y="419.4" width="46" height="44.6" as="geometry" />
        </mxCell>
        <mxCell id="1rODz5x4y69jwjxa95c7-13" value="" style="image;aspect=fixed;html=1;points=[];align=center;fontSize=12;image=img/lib/azure2/general/Management_Groups.svg;" vertex="1" parent="1">
          <mxGeometry x="380" y="419.4" width="46" height="44.6" as="geometry" />
        </mxCell>
        <mxCell id="1rODz5x4y69jwjxa95c7-14" value="" style="image;aspect=fixed;html=1;points=[];align=center;fontSize=12;image=img/lib/azure2/general/Management_Groups.svg;" vertex="1" parent="1">
          <mxGeometry x="460" y="419.4" width="46" height="44.6" as="geometry" />
        </mxCell>
        <mxCell id="1rODz5x4y69jwjxa95c7-15" value="Function-Based Hierarchy" style="text;whiteSpace=wrap;html=1;" vertex="1" parent="1">
          <mxGeometry x="790" y="220" width="170" height="40" as="geometry" />
        </mxCell>
      </root>
    </mxGraphModel>
  </diagram>
</mxfile>
